# xmcd
#
# Track frame offsets:
#	182
#	18200
#	31205
#
# Disc length: 687 seconds
#
# Revision: 1
# Processed by: cddbd v1.5.1PL0 Copyright (c) Steve Scherf et al.
# Submitted via: EasyCDDAExtractor 7.0.3.1
#
DISCID=1502ad03
DTITLE=Code APE - Il danse avec les milliards
DYEAR=1994
DGENRE=Blues
TTITLE0=Il danse avec les milliards
TTITLE1=La télé m'avale
TTITLE2=Apollo J
EXTD=
EXTT0=
EXTT1=
EXTT2=
PLAYORDER=
